<svg version="1.1" id="Capa_1" xmlns="http://www.w3.org/2000/svg" xmlns:xlink="http://www.w3.org/1999/xlink" x="0px" y="0px"
	 viewBox="0 0 490 490" fill="#ffffff">
<g><g transform="translate(0.000000,511.000000) scale(0.100000,-0.100000)"><path d="M1904.6,4560.1c-37.6-19.8-87.1-61.3-108.9-91c-39.6-53.4-41.6-85.1-47.5-613.6c-4-530.4-2-562.1,35.6-623.4c67.3-108.9,148.4-146.5,300.8-138.5c152.4,7.9,223.6,47.5,277.1,156.4c31.7,59.4,35.6,130.6,35.6,591.8c0,575.9-5.9,613.6-124.7,700.6C2195.5,4597.7,1995.6,4607.6,1904.6,4560.1z"/><path d="M7962.8,4556.2c-35.6-23.8-81.2-69.3-102.9-104.9c-37.6-61.3-39.6-100.9-39.6-599.7c0-469.1,4-542.3,35.6-601.7c53.4-108.9,124.7-148.4,277.1-156.4c152.4-7.9,233.5,29.7,300.8,138.5c37.6,61.3,39.6,100.9,39.6,599.7c0,587.8-5.9,623.4-124.7,710.5C8267.6,4601.7,8049.9,4609.6,7962.8,4556.2z"/><path d="M800.2,3992.1C465.7,3911,182.7,3618,121.3,3289.5c-29.7-156.4-27.7-6794.6,2-6933.1c71.3-336.5,336.5-607.6,680.8-698.6c102.9-25.7,597.7-29.7,4195.9-29.7c3598.2,0,4093,4,4195.9,29.7c344.4,91,609.6,362.2,680.8,698.6c29.7,138.5,31.7,6776.7,2,6933.1c-79.2,425.5-471,730.3-940.1,730.3h-128.7v-385.9c0-338.4-4-397.8-39.6-492.8c-51.5-136.6-176.2-277.1-304.8-342.4c-144.5-75.2-427.5-87.1-587.8-27.7c-142.5,53.4-269.2,166.2-344.4,300.8l-59.4,106.9l-5.9,421.6l-5.9,419.6H5099H2735.8l-5.9-419.6c-5.9-395.8-7.9-427.5-51.5-506.7c-67.3-124.7-176.2-237.5-289-296.9c-91-47.5-120.7-53.4-318.7-53.4c-190,0-229.6,5.9-314.7,47.5c-120.7,59.4-229.6,170.2-290.9,294.9c-43.5,87.1-47.5,118.8-53.4,514.6l-5.9,419.6l-251.4-2C1015.9,4017.8,857.6,4006,800.2,3992.1z M3392.9,1904.1c477-168.2,809.5-554.2,914.4-1062.8c144.5-698.6-245.4-1425-886.7-1650.6c-170.2-61.3-510.6-75.2-686.8-31.7C2524-789.6,2338-684.7,2171.7-530.3c-184.1,170.2-304.8,362.2-389.9,611.6c-59.4,172.2-65.3,207.8-65.3,445.3c-2,306.8,25.7,431.5,160.3,702.6c166.2,338.4,477,593.8,841.2,692.7C2906,1973.3,3220.7,1965.4,3392.9,1904.1z M8849.5-623.4c85.1-51.5,118.8-126.7,118.8-265.2s-33.7-213.7-118.8-265.2c-49.5-27.7-184.1-31.7-1316.2-31.7c-1385.4,0-1330-4-1403.3,118.8c-41.6,71.3-41.6,277.1-2,356.2c63.3,120.7,17.8,116.8,1401.3,118.8C8665.5-591.7,8800-595.7,8849.5-623.4z M2359.8-1064.7c186-101,330.5-128.7,661-128.7s475,27.7,661,128.7c104.9,55.4,116.8,57.4,378,57.4c304.8,0,437.4-25.7,617.5-122.7c142.5-75.2,348.3-289,417.6-433.4c108.9-221.7,112.8-271.2,112.8-1199.4v-857H2991.1H774.4v857c0,704.6,5.9,876.8,29.7,973.8c93,354.3,391.9,655.1,744.2,750.1c69.3,19.8,211.8,29.7,405.7,29.7C2246.9-1007.3,2252.9-1009.3,2359.8-1064.7z M8849.5-1810.9c85.1-51.5,118.8-126.7,118.8-265.2c0-138.5-33.7-213.8-118.8-265.2c-49.5-27.7-184.1-31.7-1316.2-31.7c-1385.4,0-1330-4-1403.3,118.8c-41.6,71.3-41.6,277.1-2,356.3c63.3,120.7,17.8,116.8,1401.3,118.8C8665.5-1779.2,8800-1783.2,8849.5-1810.9z M8849.5-2978.6c85.1-51.5,118.8-126.7,118.8-265.2s-33.7-213.8-118.8-265.2c-49.5-27.7-184.1-31.7-1316.2-31.7c-1385.4,0-1330-4-1403.3,118.8c-43.5,73.2-43.5,281,0,354.3c73.2,124.7,11.9,118.7,1399.3,120.7C8665.5-2946.9,8800-2950.9,8849.5-2978.6z"/></g></g>
</svg>